<svg data-v-423bf9ae="" xmlns="http://www.w3.org/2000/svg" viewBox="0 0 201 90" class="iconLeft"><!----><!----><!----><g data-v-423bf9ae="" id="98b7aa12-4226-4529-9c45-ee7a19d843cb" fill="black" transform="matrix(6.0667338371276855,0,0,6.0667338371276855,107.45197296142578,15.364004135131836)"><path d="M4.62 9.83L0.42 9.83L0.42 9.55L1.72 9.55L1.72 0.24L0.42 0.24L0.42-0.06L4.62-0.06L4.62 0.24L3.32 0.24L3.32 9.55L4.62 9.55L4.62 9.83ZM9.58 0.24L6.94 0.24L6.94 0.24Q6.31 0.21 5.98 0.70L5.98 0.70L5.98 0.70Q6.17 0.62 6.38 0.64L6.38 0.64L6.38 0.64Q6.58 0.67 6.74 0.78L6.74 0.78L6.74 0.78Q6.90 0.88 7.01 1.06L7.01 1.06L7.01 1.06Q7.11 1.25 7.11 1.47L7.11 1.47L7.11 1.47Q7.11 1.81 6.87 2.04L6.87 2.04L6.87 2.04Q6.62 2.28 6.29 2.28L6.29 2.28L6.29 2.28Q5.94 2.28 5.70 2.05L5.70 2.05L5.70 2.05Q5.46 1.82 5.46 1.47L5.46 1.47L5.46 1.47Q5.46 0.80 5.88 0.37L5.88 0.37L5.88 0.37Q6.30-0.06 6.97-0.06L6.97-0.06L15.30-0.06L15.30 0.24L11.23 0.24L11.23 9.55L12.56 9.55L12.56 9.83L8.25 9.83L8.25 9.55L9.58 9.55L9.58 0.24Z"></path></g><!----><g data-v-423bf9ae="" id="a719527f-6c1a-4e91-8ee0-f693a10510bc" transform="matrix(2.8125,0,0,2.8125,0,0)" stroke="none" fill="black"><path d="M0 32h32V0H0v32zM2 2h2.981L16.01 21.103 27.04 2H30v28H2V2z"></path></g><!----></svg>